Coordinates
version=1
nRows=54
nColumns=12
inDegrees=yes

Units are S.I. units (second, meters, Newtons, ...)
Angles are in degrees

endheader
time	SC_y	SC_z	SC_x	AC_y	AC_z	AC_x	GH_y	GH_z	GH_yy	EL_x	PS_y
       0.0              -16.91         -3.303           11.7          34.55          5.479         -14.74          21.23          56.52          92.97          41.69           63.1
   0.04324              -16.92         -3.302           11.7          34.56          5.478         -14.74          21.25          56.52          92.97          41.69          63.11
   0.08649              -16.93         -3.301           11.7          34.56          5.478         -14.74          21.27          56.53          92.96          41.69          63.11
    0.1297              -16.93           -3.3           11.7          34.56          5.477         -14.74          21.29          56.53          92.96          41.69          63.12
     0.173              -16.94           -3.3           11.7          34.56          5.476         -14.74          21.31          56.53          92.95          41.68          63.12
    0.2162              -16.95         -3.299           11.7          34.57          5.475         -14.74          21.33          56.54          92.95          41.68          63.13
    0.2595              -16.95         -3.298           11.7          34.57          5.473         -14.74          21.36          56.54          92.94          41.68          63.13
    0.3027              -16.96         -3.297           11.7          34.57          5.472         -14.74          21.38          56.54          92.94          41.68          63.14
    0.3459              -16.97         -3.295           11.7          34.58          5.471         -14.74          21.41          56.55          92.93          41.68          63.15
    0.3892              -16.98         -3.294           11.7          34.58           5.47         -14.74          21.44          56.55          92.92          41.68          63.15
    0.4324              -16.99         -3.293           11.7          34.59          5.468         -14.74          21.47          56.56          92.92          41.68          63.16
    0.4757               -17.0         -3.291           11.7          34.59          5.466         -14.74           21.5          56.56          92.91          41.68          63.17
    0.5189              -17.01          -3.29           11.7           34.6          5.465         -14.74          21.54          56.57           92.9          41.68          63.18
    0.5622              -17.02         -3.288           11.7           34.6          5.463         -14.73          21.58          56.58          92.89          41.68          63.19
    0.6054              -17.04         -3.287           11.7          34.61          5.461         -14.73          21.62          56.58          92.88          41.68           63.2
    0.6486              -17.05         -3.285           11.7          34.62          5.458         -14.73          21.67          56.59          92.87          41.67          63.21
    0.6919              -17.06         -3.283           11.7          34.62          5.456         -14.73          21.72           56.6          92.86          41.67          63.22
    0.7351              -17.08          -3.28           11.7          34.63          5.453         -14.73          21.77          56.61          92.85          41.67          63.24
    0.7784               -17.1         -3.278           11.7          34.64          5.451         -14.73          21.83          56.62          92.83          41.67          63.25
    0.8216              -17.12         -3.275           11.7          34.65          5.447         -14.72           21.9          56.63          92.82          41.67          63.27
    0.8649              -17.14         -3.272           11.7          34.66          5.444         -14.72          21.97          56.64           92.8          41.67          63.29
    0.9081              -17.17         -3.269          11.71          34.67           5.44         -14.72          22.05          56.65          92.79          41.66          63.31
    0.9513              -17.19         -3.265          11.71          34.68          5.436         -14.72          22.14          56.67          92.77          41.66          63.33
    0.9946              -17.22         -3.261          11.71           34.7          5.431         -14.71          22.24          56.68          92.74          41.66          63.35
     1.038              -17.26         -3.257          11.71          34.71          5.426         -14.71          22.34           56.7          92.72          41.66          63.38
     1.081               -17.3         -3.251          11.71          34.73          5.421         -14.71          22.46          56.72          92.69          41.65          63.41
     1.124              -17.34         -3.246          11.71          34.75          5.414          -14.7           22.6          56.74          92.66          41.65          63.44
     1.168              -17.38          -3.24          11.71          34.77          5.407          -14.7          22.75          56.77          92.63          41.64          63.48
     1.211              -17.44         -3.232          11.71          34.79          5.399         -14.69          22.92          56.79          92.59          41.64          63.52
     1.254               -17.5         -3.224          11.72          34.82          5.389         -14.69          23.12          56.83          92.54          41.63          63.57
     1.297              -17.57         -3.215          11.72          34.85          5.379         -14.68          23.34          56.86          92.49          41.63          63.63
     1.341              -17.65         -3.204          11.72          34.89          5.367         -14.67          23.59           56.9          92.44          41.62          63.69
     1.384              -17.74         -3.192          11.72          34.93          5.352         -14.66          23.89          56.95          92.37          41.61          63.77
     1.427              -17.84         -3.178          11.73          34.98          5.336         -14.65          24.23          57.01          92.29           41.6          63.85
      1.47              -17.97         -3.161          11.73          35.04          5.317         -14.64          24.63          57.07           92.2          41.59          63.95
     1.513              -18.11         -3.142          11.74          35.11          5.294         -14.63           25.1          57.15          92.09          41.58          64.07
     1.557              -18.29         -3.118          11.74          35.19          5.268         -14.61          25.66          57.24          91.97          41.56          64.21
       1.6              -18.49          -3.09          11.75          35.28          5.236         -14.59          26.34          57.35          91.82          41.54          64.38
     1.643              -18.75         -3.056          11.76           35.4          5.197         -14.57          27.15          57.48          91.63          41.52          64.58
     1.686              -19.05         -3.015          11.77          35.54          5.149         -14.54          28.14          57.65          91.41          41.49          64.83
      1.73              -19.43         -2.964          11.78          35.72          5.091          -14.5          29.37          57.85          91.13          41.45          65.13
     1.773              -19.91           -2.9          11.79          35.93          5.018         -14.45           30.9          58.09          90.78          41.41          65.52
     1.816               -20.5          -2.82          11.81          36.21          4.926         -14.39          32.82          58.41          90.35          41.35           66.0
     1.859              -21.26         -2.718          11.84          36.56          4.809         -14.32          35.27          58.81          89.79          41.28          66.61
     1.903              -22.23         -2.587          11.87          37.01          4.659         -14.23           38.4          59.32          89.08          41.19          67.39
     1.946              -23.48          -2.42          11.91          37.58          4.467         -14.11          42.42          59.97          88.17          41.08          68.39
     1.989              -25.07         -2.206          11.96          38.32          4.222         -13.95          47.56          60.81          87.01          40.93          69.68
     2.032              -27.07         -1.937          12.02          39.24          3.913         -13.76          54.02          61.86          85.55          40.75          71.29
     2.076              -29.51         -1.609           12.1          40.36          3.537         -13.52          61.89          63.15          83.77          40.52          73.25
     2.119              -32.33         -1.229          12.19          41.67          3.102         -13.24          71.01          64.63           81.7          40.26          75.53
     2.162              -35.39        -0.8175          12.29          43.08           2.63         -12.94          80.89          66.24          79.47          39.98           78.0
     2.205              -38.45         -0.406          12.38          44.49          2.158         -12.65          90.77          67.85          77.23          39.69          80.46
     2.249              -41.27       -0.02594          12.47           45.8          1.722         -12.37          99.89          69.34          75.16          39.43          82.74
     2.292              -43.71         0.3019          12.55          46.92          1.346         -12.13          107.8          70.63          73.38          39.21          84.71
